{
   "accessors" : [
      {
         "bufferView" : 0,
         "componentType" : 5123,
         "count" : 1356,
         "max" : [ 1355 ],
         "min" : [ 0 ],
         "name" : "buffer-0-accessor-indices-buffer-0-mesh-0",
         "type" : "SCALAR"
      },
      {
         "bufferView" : 2,
         "componentType" : 5126,
         "count" : 1356,
         "max" : [ 3.825679063796997, 9.898370742797852, 4.779960155487061 ],
         "min" : [ -3.011421918869019, -0.0458579994738102, -4.779960155487061 ],
         "name" : "buffer-0-accessor-position-buffer-0-mesh-0",
         "type" : "VEC3"
      },
      {
         "bufferView" : 2,
         "byteOffset" : 16272,
         "componentType" : 5126,
         "count" : 1356,
         "max" : [ 0.9912999868392944, 0.9987999796867371, 0.9983999729156494 ],
         "min" : [ -0.9962000250816345, -1, -0.9983999729156494 ],
         "name" : "buffer-0-accessor-normal-buffer-0-mesh-0",
         "type" : "VEC3"
      },
      {
         "bufferView" : 1,
         "componentType" : 5126,
         "count" : 0,
         "max" : [ 0, 0 ],
         "min" : [ 0, 0 ],
         "name" : "buffer-0-accessor-texcoord-buffer-0-mesh-0",
         "type" : "VEC2"
      },
      {
         "bufferView" : 3,
         "componentType" : 5126,
         "count" : 0,
         "max" : [ 0, 0, 0, 0 ],
         "min" : [ 0, 0, 0, 0 ],
         "name" : "buffer-0-accessor-color-buffer-0-mesh-0",
         "type" : "VEC4"
      },
      {
         "bufferView" : 0,
         "byteOffset" : 2712,
         "componentType" : 5123,
         "count" : 252,
         "max" : [ 251 ],
         "min" : [ 0 ],
         "name" : "buffer-0-accessor-indices-buffer-0-mesh-0",
         "type" : "SCALAR"
      },
      {
         "bufferView" : 2,
         "byteOffset" : 32544,
         "componentType" : 5126,
         "count" : 252,
         "max" : [ 3.825679063796997, 6.001317024230957, 3.75654411315918 ],
         "min" : [ -0.03548699989914894, -0.0264509990811348, -3.75654411315918 ],
         "name" : "buffer-0-accessor-position-buffer-0-mesh-0",
         "type" : "VEC3"
      },
      {
         "bufferView" : 2,
         "byteOffset" : 35568,
         "componentType" : 5126,
         "count" : 252,
         "max" : [ 1, 0.2186000049114227, 0.9010000228881836 ],
         "min" : [ 0, -1, -0.9010000228881836 ],
         "name" : "buffer-0-accessor-normal-buffer-0-mesh-0",
         "type" : "VEC3"
      },
      {
         "bufferView" : 1,
         "componentType" : 5126,
         "count" : 0,
         "max" : [ 0, 0 ],
         "min" : [ 0, 0 ],
         "name" : "buffer-0-accessor-texcoord-buffer-0-mesh-0",
         "type" : "VEC2"
      },
      {
         "bufferView" : 3,
         "componentType" : 5126,
         "count" : 0,
         "max" : [ 0, 0, 0, 0 ],
         "min" : [ 0, 0, 0, 0 ],
         "name" : "buffer-0-accessor-color-buffer-0-mesh-0",
         "type" : "VEC4"
      },
      {
         "bufferView" : 0,
         "byteOffset" : 3216,
         "componentType" : 5123,
         "count" : 336,
         "max" : [ 335 ],
         "min" : [ 0 ],
         "name" : "buffer-0-accessor-indices-buffer-0-mesh-0",
         "type" : "SCALAR"
      },
      {
         "bufferView" : 2,
         "byteOffset" : 38592,
         "componentType" : 5126,
         "count" : 336,
         "max" : [ 3.101197957992554, 7.898098945617676, 1.378149032592773 ],
         "min" : [ 0, 0, -1.378149032592773 ],
         "name" : "buffer-0-accessor-position-buffer-0-mesh-0",
         "type" : "VEC3"
      },
      {
         "bufferView" : 2,
         "byteOffset" : 42624,
         "componentType" : 5126,
         "count" : 336,
         "max" : [ 0.9706000089645386, 0.9254000186920166, 1 ],
         "min" : [ -1, -0.9427000284194946, -1 ],
         "name" : "buffer-0-accessor-normal-buffer-0-mesh-0",
         "type" : "VEC3"
      },
      {
         "bufferView" : 1,
         "componentType" : 5126,
         "count" : 0,
         "max" : [ 0, 0 ],
         "min" : [ 0, 0 ],
         "name" : "buffer-0-accessor-texcoord-buffer-0-mesh-0",
         "type" : "VEC2"
      },
      {
         "bufferView" : 3,
         "componentType" : 5126,
         "count" : 0,
         "max" : [ 0, 0, 0, 0 ],
         "min" : [ 0, 0, 0, 0 ],
         "name" : "buffer-0-accessor-color-buffer-0-mesh-0",
         "type" : "VEC4"
      },
      {
         "bufferView" : 0,
         "byteOffset" : 3888,
         "componentType" : 5123,
         "count" : 48,
         "max" : [ 47 ],
         "min" : [ 0 ],
         "name" : "buffer-0-accessor-indices-buffer-0-mesh-0",
         "type" : "SCALAR"
      },
      {
         "bufferView" : 2,
         "byteOffset" : 46656,
         "componentType" : 5126,
         "count" : 48,
         "max" : [ 0.001604999997653067, 9.608255386352539, 3.42042088508606 ],
         "min" : [ -0.28854700922966, 0, -3.42042088508606 ],
         "name" : "buffer-0-accessor-position-buffer-0-mesh-0",
         "type" : "VEC3"
      },
      {
         "bufferView" : 2,
         "byteOffset" : 47232,
         "componentType" : 5126,
         "count" : 48,
         "max" : [ 0.9976999759674072, 0.222800001502037, 0.2295999974012375 ],
         "min" : [ 0, -0.06379999965429306, -0.2295999974012375 ],
         "name" : "buffer-0-accessor-normal-buffer-0-mesh-0",
         "type" : "VEC3"
      },
      {
         "bufferView" : 1,
         "componentType" : 5126,
         "count" : 0,
         "max" : [ 0, 0 ],
         "min" : [ 0, 0 ],
         "name" : "buffer-0-accessor-texcoord-buffer-0-mesh-0",
         "type" : "VEC2"
      },
      {
         "bufferView" : 3,
         "componentType" : 5126,
         "count" : 0,
         "max" : [ 0, 0, 0, 0 ],
         "min" : [ 0, 0, 0, 0 ],
         "name" : "buffer-0-accessor-color-buffer-0-mesh-0",
         "type" : "VEC4"
      }
   ],
   "asset" : {
      "generator" : "Obj2GltfConverter",
      "version" : "2.0"
   },
   "bufferViews" : [
      {
         "buffer" : 0,
         "byteLength" : 3984,
         "byteStride" : 0,
         "name" : "buffer-0-bufferview-ushort",
         "target" : 34963
      },
      {
         "buffer" : 0,
         "byteLength" : 1,
         "name" : "buffer-0-bufferview-vec2"
      },
      {
         "buffer" : 0,
         "byteLength" : 47808,
         "byteOffset" : 3984,
         "byteStride" : 12,
         "name" : "buffer-0-bufferview-vec3",
         "target" : 34962
      },
      {
         "buffer" : 0,
         "byteLength" : 1,
         "name" : "buffer-0-bufferview-vec4"
      }
   ],
   "buffers" : [
      {
         "byteLength" : 51792,
         "name" : "buffer-0",
         "uri" : "Koala_01.bin"
      }
   ],
   "materials" : [
      {
         "doubleSided" : true,
         "name" : "455A64",
         "pbrMetallicRoughness" : {
            "baseColorFactor" : [ 0.270588, 0.352941, 0.392157, 1 ],
            "metallicFactor" : 0,
            "roughnessFactor" : 0.7448017359246658
         }
      },
      {
         "doubleSided" : true,
         "name" : "FFFFFF",
         "pbrMetallicRoughness" : {
            "metallicFactor" : 0,
            "roughnessFactor" : 0.7448017359246658
         }
      },
      {
         "doubleSided" : true,
         "name" : "1A1A1A",
         "pbrMetallicRoughness" : {
            "baseColorFactor" : [ 0.101961, 0.101961, 0.101961, 1 ],
            "metallicFactor" : 0,
            "roughnessFactor" : 0.7448017359246658
         }
      },
      {
         "doubleSided" : true,
         "name" : "F06292",
         "pbrMetallicRoughness" : {
            "baseColorFactor" : [ 0.941176, 0.384314, 0.572549, 1 ],
            "metallicFactor" : 0,
            "roughnessFactor" : 0.7448017359246658
         }
      }
   ],
   "meshes" : [
      {
         "name" : "buffer-0-mesh-0",
         "primitives" : [
            {
               "attributes" : {
                  "NORMAL" : 2,
                  "POSITION" : 1,
                  "TEXCOORD_0" : 3
               },
               "indices" : 0,
               "material" : 0
            },
            {
               "attributes" : {
                  "NORMAL" : 7,
                  "POSITION" : 6,
                  "TEXCOORD_0" : 8
               },
               "indices" : 5,
               "material" : 1
            },
            {
               "attributes" : {
                  "NORMAL" : 12,
                  "POSITION" : 11,
                  "TEXCOORD_0" : 13
               },
               "indices" : 10,
               "material" : 2
            },
            {
               "attributes" : {
                  "NORMAL" : 17,
                  "POSITION" : 16,
                  "TEXCOORD_0" : 18
               },
               "indices" : 15,
               "material" : 3
            }
         ]
      }
   ],
   "nodes" : [
      {
         "mesh" : 0,
         "name" : "node-0"
      }
   ],
   "scenes" : [
      {
         "name" : "scene-0",
         "nodes" : [ 0 ]
      }
   ]
}
